<?xml version="1.0" encoding="UTF-8" standalone="no"?>
<!DOCTYPE svg PUBLIC "-//W3C//DTD SVG 1.1//EN"
 "http://www.w3.org/Graphics/SVG/1.1/DTD/svg11.dtd">
<!-- Generated by graphviz version 2.40.1 (20161225.0304)
 -->
<!-- Title: dependencies Pages: 1 -->
<svg width="1668pt" height="284pt"
 viewBox="0.00 0.00 1668.00 284.00" xmlns="http://www.w3.org/2000/svg" xmlns:xlink="http://www.w3.org/1999/xlink">
<g id="graph0" class="graph" transform="scale(1 1) rotate(0) translate(4 280)">
<title>dependencies</title>
<polygon fill="#ffffff" stroke="transparent" points="-4,4 -4,-280 1664,-280 1664,4 -4,4"/>
<text text-anchor="start" x="809.0091" y="-42.4" font-family="sans-serif" font-weight="bold" font-size="14.00" fill="#000000">Legend</text>
<polygon fill="#ffffb3" stroke="transparent" points="596,-10 596,-30 616,-30 616,-10 596,-10"/>
<text text-anchor="start" x="619.629" y="-15.4" font-family="sans-serif" font-size="14.00" fill="#000000"> &#160;Declarations</text>
<polygon fill="#8dd3c7" stroke="transparent" points="709,-10 709,-30 729,-30 729,-10 709,-10"/>
<text text-anchor="start" x="732.7251" y="-15.4" font-family="sans-serif" font-size="14.00" fill="#000000"> &#160;Module</text>
<polygon fill="#80b1d3" stroke="transparent" points="795,-10 795,-30 815,-30 815,-10 795,-10"/>
<text text-anchor="start" x="818.7812" y="-15.4" font-family="sans-serif" font-size="14.00" fill="#000000"> &#160;Bootstrap</text>
<polygon fill="#fdb462" stroke="transparent" points="892,-10 892,-30 912,-30 912,-10 892,-10"/>
<text text-anchor="start" x="915.6732" y="-15.4" font-family="sans-serif" font-size="14.00" fill="#000000"> &#160;Providers</text>
<polygon fill="#fb8072" stroke="transparent" points="988,-10 988,-30 1008,-30 1008,-10 988,-10"/>
<text text-anchor="start" x="1011.7258" y="-15.4" font-family="sans-serif" font-size="14.00" fill="#000000"> &#160;Exports</text>
<g id="clust1" class="cluster">
<title>cluster_AppModule</title>
<polygon fill="none" stroke="#000000" stroke-dasharray="1,5" points="8,-70 8,-268 1652,-268 1652,-70 8,-70"/>
</g>
<g id="clust2" class="cluster">
<title>cluster_AppModule_declarations</title>
<polygon fill="none" stroke="#000000" points="168,-78 168,-130 1644,-130 1644,-78 168,-78"/>
</g>
<g id="clust13" class="cluster">
<title>cluster_AppModule_imports</title>
<polygon fill="none" stroke="#000000" points="16,-78 16,-130 160,-130 160,-78 16,-78"/>
</g>
<g id="clust15" class="cluster">
<title>cluster_AppModule_bootstrap</title>
<polygon fill="none" stroke="#000000" points="787,-208 787,-260 911,-260 911,-208 787,-208"/>
</g>
<!-- AppComponent -->
<g id="node1" class="node">
<title>AppComponent</title>
<polygon fill="#ffffb3" stroke="#000000" points="1635.9399,-122 1530.0601,-122 1530.0601,-86 1635.9399,-86 1635.9399,-122"/>
<text text-anchor="middle" x="1583" y="-99.8" font-family="Times,serif" font-size="14.00" fill="#000000">AppComponent</text>
</g>
<!-- AppModule -->
<g id="node11" class="node">
<title>AppModule</title>
<polygon fill="#8dd3c7" stroke="#000000" points="890.6571,-187 887.6571,-191 866.6571,-191 863.6571,-187 807.3429,-187 807.3429,-151 890.6571,-151 890.6571,-187"/>
<text text-anchor="middle" x="849" y="-164.8" font-family="Times,serif" font-size="14.00" fill="#000000">AppModule</text>
</g>
<!-- AppComponent&#45;&gt;AppModule -->
<g id="edge1" class="edge">
<title>AppComponent&#45;&gt;AppModule</title>
<path fill="none" stroke="#000000" d="M1583,-122.2479C1583,-145.0179 1583,-181 1583,-181 1583,-181 900.8323,-181 900.8323,-181"/>
<polygon fill="#000000" stroke="#000000" points="900.8324,-177.5001 890.8323,-181 900.8323,-184.5001 900.8324,-177.5001"/>
</g>
<!-- DashboardComponent -->
<g id="node2" class="node">
<title>DashboardComponent</title>
<polygon fill="#ffffb3" stroke="#000000" points="1511.9734,-122 1370.0266,-122 1370.0266,-86 1511.9734,-86 1511.9734,-122"/>
<text text-anchor="middle" x="1441" y="-99.8" font-family="Times,serif" font-size="14.00" fill="#000000">DashboardComponent</text>
</g>
<!-- DashboardComponent&#45;&gt;AppModule -->
<g id="edge2" class="edge">
<title>DashboardComponent&#45;&gt;AppModule</title>
<path fill="none" stroke="#000000" d="M1441,-122.2843C1441,-143.3211 1441,-175 1441,-175 1441,-175 901.1006,-175 901.1006,-175"/>
<polygon fill="#000000" stroke="#000000" points="901.1006,-171.5001 891.1006,-175 901.1006,-178.5001 901.1006,-171.5001"/>
</g>
<!-- HeroAddComponent -->
<g id="node3" class="node">
<title>HeroAddComponent</title>
<polygon fill="#ffffb3" stroke="#000000" points="1351.9215,-122 1218.0785,-122 1218.0785,-86 1351.9215,-86 1351.9215,-122"/>
<text text-anchor="middle" x="1285" y="-99.8" font-family="Times,serif" font-size="14.00" fill="#000000">HeroAddComponent</text>
</g>
<!-- HeroAddComponent&#45;&gt;AppModule -->
<g id="edge3" class="edge">
<title>HeroAddComponent&#45;&gt;AppModule</title>
<path fill="none" stroke="#000000" d="M1285,-122.1061C1285,-141.3391 1285,-169 1285,-169 1285,-169 900.8055,-169 900.8055,-169"/>
<polygon fill="#000000" stroke="#000000" points="900.8055,-165.5001 890.8055,-169 900.8055,-172.5001 900.8055,-165.5001"/>
</g>
<!-- HeroDetailComponent -->
<g id="node4" class="node">
<title>HeroDetailComponent</title>
<polygon fill="#ffffb3" stroke="#000000" points="1200.5226,-122 1057.4774,-122 1057.4774,-86 1200.5226,-86 1200.5226,-122"/>
<text text-anchor="middle" x="1129" y="-99.8" font-family="Times,serif" font-size="14.00" fill="#000000">HeroDetailComponent</text>
</g>
<!-- HeroDetailComponent&#45;&gt;AppModule -->
<g id="edge4" class="edge">
<title>HeroDetailComponent&#45;&gt;AppModule</title>
<path fill="none" stroke="#000000" d="M1129,-122.0225C1129,-139.3734 1129,-163 1129,-163 1129,-163 900.9188,-163 900.9188,-163"/>
<polygon fill="#000000" stroke="#000000" points="900.9189,-159.5001 890.9188,-163 900.9188,-166.5001 900.9189,-159.5001"/>
</g>
<!-- HeroFilterPipe -->
<g id="node5" class="node">
<title>HeroFilterPipe</title>
<polygon fill="#ffffb3" stroke="#000000" points="1039.6994,-122 940.3006,-122 940.3006,-86 1039.6994,-86 1039.6994,-122"/>
<text text-anchor="middle" x="990" y="-99.8" font-family="Times,serif" font-size="14.00" fill="#000000">HeroFilterPipe</text>
</g>
<!-- HeroFilterPipe&#45;&gt;AppModule -->
<g id="edge5" class="edge">
<title>HeroFilterPipe&#45;&gt;AppModule</title>
<path fill="none" stroke="#000000" d="M990,-122.2396C990,-137.5706 990,-157 990,-157 990,-157 900.9229,-157 900.9229,-157"/>
<polygon fill="#000000" stroke="#000000" points="900.9229,-153.5001 890.9229,-157 900.9229,-160.5001 900.9229,-153.5001"/>
</g>
<!-- HeroSearchComponent -->
<g id="node6" class="node">
<title>HeroSearchComponent</title>
<polygon fill="#ffffb3" stroke="#000000" points="922.9017,-122 775.0983,-122 775.0983,-86 922.9017,-86 922.9017,-122"/>
<text text-anchor="middle" x="849" y="-99.8" font-family="Times,serif" font-size="14.00" fill="#000000">HeroSearchComponent</text>
</g>
<!-- HeroSearchComponent&#45;&gt;AppModule -->
<g id="edge6" class="edge">
<title>HeroSearchComponent&#45;&gt;AppModule</title>
<path fill="none" stroke="#000000" d="M849,-122.1061C849,-122.1061 849,-140.991 849,-140.991"/>
<polygon fill="#000000" stroke="#000000" points="845.5001,-140.9909 849,-150.991 852.5001,-140.991 845.5001,-140.9909"/>
</g>
<!-- HeroesComponent -->
<g id="node7" class="node">
<title>HeroesComponent</title>
<polygon fill="#ffffb3" stroke="#000000" points="757.4734,-122 636.5266,-122 636.5266,-86 757.4734,-86 757.4734,-122"/>
<text text-anchor="middle" x="697" y="-99.8" font-family="Times,serif" font-size="14.00" fill="#000000">HeroesComponent</text>
</g>
<!-- HeroesComponent&#45;&gt;AppModule -->
<g id="edge7" class="edge">
<title>HeroesComponent&#45;&gt;AppModule</title>
<path fill="none" stroke="#000000" d="M697,-122.2396C697,-137.5706 697,-157 697,-157 697,-157 797.063,-157 797.063,-157"/>
<polygon fill="#000000" stroke="#000000" points="797.063,-160.5001 807.063,-157 797.0629,-153.5001 797.063,-160.5001"/>
</g>
<!-- MessagesComponent -->
<g id="node8" class="node">
<title>MessagesComponent</title>
<polygon fill="#ffffb3" stroke="#000000" points="618.7548,-122 483.2452,-122 483.2452,-86 618.7548,-86 618.7548,-122"/>
<text text-anchor="middle" x="551" y="-99.8" font-family="Times,serif" font-size="14.00" fill="#000000">MessagesComponent</text>
</g>
<!-- MessagesComponent&#45;&gt;AppModule -->
<g id="edge8" class="edge">
<title>MessagesComponent&#45;&gt;AppModule</title>
<path fill="none" stroke="#000000" d="M551,-122.0225C551,-139.3734 551,-163 551,-163 551,-163 797.2506,-163 797.2506,-163"/>
<polygon fill="#000000" stroke="#000000" points="797.2506,-166.5001 807.2506,-163 797.2506,-159.5001 797.2506,-166.5001"/>
</g>
<!-- NavbarComponent -->
<g id="node9" class="node">
<title>NavbarComponent</title>
<polygon fill="#ffffb3" stroke="#000000" points="465.0297,-122 342.9703,-122 342.9703,-86 465.0297,-86 465.0297,-122"/>
<text text-anchor="middle" x="404" y="-99.8" font-family="Times,serif" font-size="14.00" fill="#000000">NavbarComponent</text>
</g>
<!-- NavbarComponent&#45;&gt;AppModule -->
<g id="edge9" class="edge">
<title>NavbarComponent&#45;&gt;AppModule</title>
<path fill="none" stroke="#000000" d="M404,-122.1061C404,-141.3391 404,-169 404,-169 404,-169 797.1355,-169 797.1355,-169"/>
<polygon fill="#000000" stroke="#000000" points="797.1355,-172.5001 807.1355,-169 797.1354,-165.5001 797.1355,-172.5001"/>
</g>
<!-- SearchInputComponent -->
<g id="node10" class="node">
<title>SearchInputComponent</title>
<polygon fill="#ffffb3" stroke="#000000" points="324.4706,-122 175.5294,-122 175.5294,-86 324.4706,-86 324.4706,-122"/>
<text text-anchor="middle" x="250" y="-99.8" font-family="Times,serif" font-size="14.00" fill="#000000">SearchInputComponent</text>
</g>
<!-- SearchInputComponent&#45;&gt;AppModule -->
<g id="edge10" class="edge">
<title>SearchInputComponent&#45;&gt;AppModule</title>
<path fill="none" stroke="#000000" d="M250,-122.2843C250,-143.3211 250,-175 250,-175 250,-175 796.8795,-175 796.8795,-175"/>
<polygon fill="#000000" stroke="#000000" points="796.8795,-178.5001 806.8795,-175 796.8794,-171.5001 796.8795,-178.5001"/>
</g>
<!-- AppComponent  -->
<g id="node13" class="node">
<title>AppComponent </title>
<polygon fill="#80b1d3" stroke="#000000" points="903.439,-252 794.561,-252 794.561,-216 903.439,-216 903.439,-252"/>
<text text-anchor="middle" x="849" y="-229.8" font-family="Times,serif" font-size="14.00" fill="#000000">AppComponent </text>
</g>
<!-- AppModule&#45;&gt;AppComponent  -->
<g id="edge12" class="edge">
<title>AppModule&#45;&gt;AppComponent </title>
<path fill="none" stroke="#000000" stroke-dasharray="1,5" d="M849,-187.1061C849,-187.1061 849,-205.991 849,-205.991"/>
<polygon fill="#000000" stroke="#000000" points="845.5001,-205.9909 849,-215.991 852.5001,-205.991 845.5001,-205.9909"/>
</g>
<!-- AppRoutingModule -->
<g id="node12" class="node">
<title>AppRoutingModule</title>
<polygon fill="#8dd3c7" stroke="#000000" points="152.2744,-122 149.2744,-126 128.2744,-126 125.2744,-122 23.7256,-122 23.7256,-86 152.2744,-86 152.2744,-122"/>
<text text-anchor="middle" x="88" y="-99.8" font-family="Times,serif" font-size="14.00" fill="#000000">AppRoutingModule</text>
</g>
<!-- AppRoutingModule&#45;&gt;AppModule -->
<g id="edge11" class="edge">
<title>AppRoutingModule&#45;&gt;AppModule</title>
<path fill="none" stroke="#000000" d="M88,-122.2479C88,-145.0179 88,-181 88,-181 88,-181 797.2735,-181 797.2735,-181"/>
<polygon fill="#000000" stroke="#000000" points="797.2736,-184.5001 807.2735,-181 797.2735,-177.5001 797.2736,-184.5001"/>
</g>
</g>
</svg>
